<?xml version="1.0" encoding="UTF-8" standalone="no"?>
<svg
   xmlns:dc="http://purl.org/dc/elements/1.1/"
   xmlns:cc="http://creativecommons.org/ns#"
   xmlns:rdf="http://www.w3.org/1999/02/22-rdf-syntax-ns#"
   xmlns:svg="http://www.w3.org/2000/svg"
   xmlns="http://www.w3.org/2000/svg"
   xmlns:sodipodi="http://sodipodi.sourceforge.net/DTD/sodipodi-0.dtd"
   xmlns:inkscape="http://www.inkscape.org/namespaces/inkscape"
   enable-background="new 0 0 32 32"
   height="32px"
   id="svg2"
   version="1.1"
   viewBox="0 0 32 32"
   width="32px"
   xml:space="preserve"
   inkscape:version="0.48.4 r9939"
   sodipodi:docname="icon_disabled.svg"><metadata
     id="metadata13"><rdf:RDF><cc:Work
         rdf:about=""><dc:format>image/svg+xml</dc:format><dc:type
           rdf:resource="http://purl.org/dc/dcmitype/StillImage" /><dc:title /></cc:Work></rdf:RDF></metadata><defs
     id="defs11" /><sodipodi:namedview
     pagecolor="#ffffff"
     bordercolor="#666666"
     borderopacity="1"
     objecttolerance="10"
     gridtolerance="10"
     guidetolerance="10"
     inkscape:pageopacity="0"
     inkscape:pageshadow="2"
     inkscape:window-width="1366"
     inkscape:window-height="706"
     id="namedview9"
     showgrid="false"
     inkscape:zoom="7.375"
     inkscape:cx="-1.8201893"
     inkscape:cy="12.881356"
     inkscape:window-x="0"
     inkscape:window-y="37"
     inkscape:window-maximized="1"
     inkscape:current-layer="svg2" /><g
     id="background"><rect
       height="32"
       width="32"
       x="0"
       id="rect4"
       fill="none" /></g><g
     id="tab"><path
       d="M30,10V6h-8v4h-2V6h-8v4H10V6H0v20h32V10H30z M29.999,24.001H2V8h6v3.999h21.999V24.001z"
       id="path7"
       style="fill:#666666;fill-opacity:1" /></g><g
     id="g2991"
     transform="matrix(0.68956304,0,0,0.66101695,7.7255883,10.067797)"><g
       id="g2993"><path
         id="path2995"
         d="m 12,4 c -7.937,0 -12.012,8 -12.012,8 0,0 3.075,8 12.012,8 8.093,0 12.011,-7.969 12.011,-7.969 C 24.011,12.031 20.062,4 12,4 z m 0.018,13 c -2.902,0 -5,-2.188 -5,-5 0,-2.813 2.098,-5 5,-5 2.902,0 5,2.187 5,5 0,2.812 -2.098,5 -5,5 z m 0,-8 c -1.658,0.003 -3,1.393 -3,3 0,1.606 1.342,3 3,3 1.658,0 3,-1.395 3,-3 0,-1.608 -1.342,-3.003 -3,-3 z"
         clip-rule="evenodd"
         inkscape:connector-curvature="0"
         style="fill:#666666;fill-opacity:1;fill-rule:evenodd" /></g></g></svg>